PathFileType	4	(X/Y/Z)	C:/Users/opensim2020/Desktop/walking_exp_matlab/subject03_walking05_straight_04.trc	
DataRate	CameraRate	NumFrames	NumMarkers	Units	OrigDataRate	OrigDataStartFrame	OrigNumFrames	
100.00	100.00	4	45	mm	100.00	3002	294	
Frame#	Time	LFHD			RFHD			LBHD			RBHD			C7			T10			CLAV			STRN			RBAK			LSHO			LUPA			LELB			LFRM			LWRA			LWRB			LFIN			RSHO			RUPA			RELB			RFRM			RWRA			RWRB			RFIN			LASI			RASI			LPSI			RPSI			LTHI			LKNE			LTIB			LANK			LHEE			LTOE			RTHI			RKNE			RTIB			RANK			RHEE			RTOE			*39			*40			*41			*42			*43			*44			
		X1	Y1	Z1	X2	Y2	Z2	X3	Y3	Z3	X4	Y4	Z4	X5	Y5	Z5	X6	Y6	Z6	X7	Y7	Z7	X8	Y8	Z8	X9	Y9	Z9	X10	Y10	Z10	X11	Y11	Z11	X12	Y12	Z12	X13	Y13	Z13	X14	Y14	Z14	X15	Y15	Z15	X16	Y16	Z16	X17	Y17	Z17	X18	Y18	Z18	X19	Y19	Z19	X20	Y20	Z20	X21	Y21	Z21	X22	Y22	Z22	X23	Y23	Z23	X24	Y24	Z24	X25	Y25	Z25	X26	Y26	Z26	X27	Y27	Z27	X28	Y28	Z28	X29	Y29	Z29	X30	Y30	Z30	X31	Y31	Z31	X32	Y32	Z32	X33	Y33	Z33	X34	Y34	Z34	X35	Y35	Z35	X36	Y36	Z36	X37	Y37	Z37	X38	Y38	Z38	X39	Y39	Z39	X40	Y40	Z40	X41	Y41	Z41	X42	Y42	Z42	X43	Y43	Z43	X44	Y44	Z44	X45	Y45	Z45	

148	1.470	1511.30005	231.66595	1623.98425	1379.69177	250.78555	1632.89819	1521.84680	357.39404	1574.40283	1391.76196	371.25314	1583.41992	1461.70569	392.12524	1418.92090	1459.38477	409.59570	1103.24231	1446.61707	268.16623	1346.24622	1446.60229	217.61937	1184.11487	1368.90295	447.90744	1240.34363	1606.47778	298.22525	1379.77307	1677.00110	277.03946	1183.79028	1686.86108	252.96054	1063.04321	1680.96875	209.76949	940.03766	1647.39697	183.34056	824.95825	1702.23230	193.38914	829.05029	1691.33643	165.13438	751.08130	1292.25317	332.38184	1369.22412	1221.57800	321.55435	1145.56604	1210.35889	295.85284	1035.38281	1210.53406	264.43823	902.16937	1247.60718	222.49922	812.17377	1204.32092	254.39740	802.48102	1214.54211	221.63254	735.74854	1568.20544	231.42126	949.08569	1330.11938	248.41771	945.71735	1527.71973	396.30240	969.14764	1378.79272	405.52213	969.09448	1600.35461	286.99731	644.55725	1554.82361	292.99347	468.21295	1557.26416	348.66089	280.02045	1512.86035	374.99036	72.00076	1479.12756	418.58429	37.61294	1476.34937	224.75816	35.02464	1283.73120	236.37968	652.12378	1307.57910	169.82983	484.84668	1307.51355	288.76590	336.49686	1351.85901	423.08517	169.31555	1407.36218	475.66260	164.39833	1360.55701	332.32852	61.24563																		 
149	1.480	1511.00818	222.31258	1623.62402	1379.42090	241.43213	1632.48193	1521.33008	348.04468	1574.25269	1391.65454	361.95728	1583.21497	1461.41394	382.87915	1418.68286	1459.25671	400.84778	1103.06982	1446.70178	259.06143	1345.87146	1447.10828	208.68730	1183.57227	1368.79944	438.74097	1240.06958	1606.33728	289.42072	1379.83044	1677.48718	265.87845	1184.66064	1687.41711	239.11423	1064.52649	1681.02783	192.63464	942.74567	1646.82019	162.93698	828.48132	1701.70862	173.06163	832.29901	1690.64612	142.50133	755.14227	1292.21130	323.05154	1368.86865	1221.56091	313.90176	1145.06848	1210.21375	289.36282	1034.72766	1210.45959	259.08072	901.18622	1247.37390	217.89064	810.85828	1204.44287	250.07710	801.28064	1214.43567	217.95917	734.07501	1568.81006	223.56577	948.43964	1330.33105	238.80432	945.49445	1527.10266	388.20038	968.64221	1378.19226	396.48053	968.69659	1600.24512	281.40286	644.10492	1554.93689	289.10815	467.79202	1557.14685	346.64499	280.15805	1512.73547	374.87848	72.23420	1478.91748	418.55927	37.92639	1476.42200	224.74983	34.98759	1284.18188	223.47925	653.12958	1309.07739	154.62993	486.82852	1308.38855	268.10486	333.54996	1352.17847	395.64612	160.79346	1407.44336	448.31110	153.13167	1361.43176	299.31860	58.20853																		 
150	1.490	1510.75818	212.92107	1623.23779	1379.13123	232.04774	1631.93030	1521.15967	338.75229	1574.08862	1391.42310	352.67294	1582.91443	1461.25281	373.60989	1418.38782	1459.11353	392.02518	1102.81250	1446.76367	249.92274	1345.43225	1447.57605	199.88556	1183.11633	1368.57727	429.47873	1239.68823	1606.18115	280.56137	1379.72803	1677.93274	254.74200	1185.35229	1688.09180	225.40491	1065.88171	1681.04175	175.72566	945.47278	1646.22607	143.13928	832.07129	1701.17480	152.96315	835.57190	1689.86816	120.25037	759.36163	1292.14905	313.57394	1368.35107	1221.51636	306.09271	1144.44324	1209.99121	282.76221	1033.85938	1210.34363	253.66045	900.10168	1247.02185	212.89970	809.47308	1204.32935	245.46910	800.14343	1214.69458	214.68799	732.44080	1569.41089	215.73840	947.74402	1330.71362	229.64696	945.20569	1526.47876	380.04126	968.05096	1377.60901	387.45996	968.16223	1600.07288	276.07898	643.60382	1555.19507	285.47195	467.36783	1556.98450	344.61331	280.24579	1512.54810	374.65137	72.45518	1478.53711	418.27463	37.98112	1476.50098	224.64275	35.09941	1284.35425	211.41089	654.01068	1310.40271	140.15506	488.61890	1309.18286	247.70105	330.43988	1352.78955	367.70871	152.14186	1407.82471	420.31665	141.72525	1362.41345	265.68414	55.27986																		 
151	1.500	1510.44055	203.56519	1622.73804	1378.82471	222.71086	1631.38342	1521.23633	329.54224	1573.81763	1391.21387	343.36215	1582.44800	1461.01587	364.33618	1418.01367	1458.96619	383.22675	1102.44263	1446.81299	240.73990	1344.83105	1447.91699	190.76086	1182.42004	1368.41992	420.26096	1239.28528	1606.03125	271.57922	1379.46130	1678.44275	243.59930	1185.94800	1688.77307	211.94414	1067.13147	1681.00623	158.97923	948.04260	1645.70007	122.98070	836.04309	1700.58618	133.17941	838.87946	1688.98621	98.29958	763.67944	1292.04297	304.00073	1367.68689	1221.40479	298.18762	1143.71338	1209.76941	276.04443	1032.93396	1210.17871	248.23460	898.85632	1246.96045	208.31290	807.68030	1204.26379	241.12485	798.78949	1214.79456	211.12033	730.58527	1569.91187	207.89287	946.91162	1330.83093	220.16418	945.00708	1525.80640	371.87241	967.46204	1377.03455	378.42578	967.60028	1599.87195	270.80170	643.08459	1554.87549	281.10333	466.88007	1556.72888	342.37491	280.26422	1512.33032	374.44467	72.71729	1478.28394	418.27573	38.44738	1476.52246	224.48915	35.06073	1284.60132	199.28676	654.72693	1311.55042	126.36205	490.17474	1309.97290	227.51735	327.12134	1353.48584	338.82104	142.88167	1408.27039	391.04465	129.77586	1363.47424	231.67786	52.43811																		 
